<?xml version="1.0" encoding="UTF-8"?>
<svg id="Layer_1" xmlns="http://www.w3.org/2000/svg" version="1.1" viewBox="0 0 223.43 229.13">
  <!-- Generator: Adobe Illustrator 29.6.1, SVG Export Plug-In . SVG Version: 2.1.1 Build 9)  -->
  <defs>
    <style>
      .st0 {
        fill: #fff;
      }
    </style>
  </defs>
  <g>
    <polygon class="st0" points="69.27 163.06 63.33 163.06 63.33 191.68 84.09 191.68 84.09 186.34 69.27 186.34 69.27 163.06"/>
    <polygon class="st0" points="138.82 178.02 131.91 163.1 131.2 163.1 124.3 177.98 118.99 163.1 112.66 163.1 123.14 191.52 123.21 191.71 124.1 191.71 131.57 175.76 138.97 191.68 139.9 191.68 150.57 163.1 144.24 163.1 138.82 178.02"/>
    <polygon class="st0" points="153.17 191.68 174.4 191.68 174.4 186.27 159.12 186.27 159.12 180.26 172.67 180.26 172.67 174.82 159.12 174.82 159.12 168.39 174.4 168.39 174.4 163.06 153.17 163.06 153.17 191.68"/>
    <polygon class="st0" points="185.15 163.06 179.2 163.06 179.2 191.68 199.97 191.68 199.97 186.34 185.15 186.34 185.15 163.06"/>
    <polygon class="st0" points="208.61 163.06 202.66 163.06 202.66 191.68 223.43 191.68 223.43 186.34 208.61 186.34 208.61 163.06"/>
    <path class="st0" d="M44.77,208.71c0,.38-.07.77-.2,1.16-.13.39-.32.74-.56,1.05-.24.3-.55.55-.9.73-.35.18-.78.28-1.26.28h-6.3v-6.08h6.68c.33,0,.65.08.96.24.31.16.59.37.82.63.23.26.42.56.56.91.14.35.21.71.21,1.09M45.92,220.29c0,.42-.08.84-.25,1.25-.17.42-.4.8-.68,1.15-.28.34-.61.61-.98.81-.36.19-.76.29-1.17.29h-7.29v-6.54h6.72c1.14,0,2.05.3,2.7.88.65.59.96,1.29.96,2.16M49.95,215.92c-.56-.61-1.2-1.1-1.9-1.46-.27-.14-.54-.25-.81-.34.22-.09.43-.21.63-.34.59-.39,1.1-.87,1.51-1.43.41-.56.74-1.18.98-1.84.24-.67.36-1.31.36-1.9,0-1.62-.23-2.97-.67-4.01-.45-1.05-1.07-1.89-1.85-2.5-.77-.6-1.69-1.02-2.72-1.24-1.01-.22-2.1-.33-3.24-.33h-12.62v28.62h13.24c1.22,0,2.38-.14,3.46-.43,1.1-.29,2.07-.78,2.89-1.45.82-.68,1.48-1.57,1.96-2.67.47-1.09.71-2.43.71-3.99,0-.9-.18-1.77-.54-2.56-.36-.79-.82-1.5-1.37-2.1"/>
    <path class="st0" d="M71.03,219.47h-7.08l3.56-7.49,3.53,7.49ZM67.06,200.55l-14.62,28.58h6.48l2.14-4.4h12.85l2.18,4.4h6.48l-14.62-28.58h-.89Z"/>
    <polygon class="st0" points="104.03 217.1 86.09 200.62 86.01 200.55 85.03 200.55 85.03 229.13 90.98 229.13 90.98 212.83 109 229.13 109.97 229.13 109.97 200.55 104.03 200.55 104.03 217.1"/>
    <polygon class="st0" points="139.65 200.55 132.31 200.55 121.6 214.2 121.6 200.51 115.66 200.51 115.66 229.13 121.6 229.13 121.6 216.83 132.94 229.13 140.82 229.13 127.9 215.3 139.65 200.55"/>
    <polygon class="st0" points="143.38 229.13 164.61 229.13 164.61 223.72 149.32 223.72 149.32 217.71 162.88 217.71 162.88 212.27 149.32 212.27 149.32 205.84 164.61 205.84 164.61 200.51 143.38 200.51 143.38 229.13"/>
    <path class="st0" d="M185.13,213.78c-.38.37-.81.64-1.29.82-.49.18-.96.27-1.41.27h-7.08v-9.03h7.08c.88,0,1.59.17,2.1.49.52.33.92.74,1.2,1.21.29.48.48.99.57,1.51.1.54.15,1.02.15,1.4,0,.75-.13,1.4-.38,1.95-.25.55-.57,1.02-.95,1.39M175.36,220.2h4.86c1.04,1.49,2.09,2.97,3.12,4.4,1.07,1.48,2.18,2.97,3.29,4.41l.09.11h7.11l-.34-.46c-2.21-3.05-4.49-6.12-6.76-9.12,1.65-.72,3-1.85,4.02-3.37,1.09-1.63,1.64-3.55,1.64-5.72,0-1.43-.25-2.78-.73-3.99-.49-1.22-1.17-2.28-2.04-3.16-.87-.88-1.93-1.57-3.15-2.06-1.22-.48-2.58-.73-4.04-.73h-13.03v28.62h5.94v-8.92Z"/>
    <path class="st0" d="M25.43,167.07c-.91-.92-1.93-1.72-3.03-2.38-1.1-.66-2.31-1.18-3.59-1.54-1.28-.36-2.63-.55-4-.55-2.02,0-3.96.39-5.75,1.17-1.79.78-3.37,1.85-4.7,3.18-1.33,1.34-2.41,2.92-3.18,4.7-.78,1.79-1.17,3.72-1.17,5.75s.39,3.96,1.17,5.75c.78,1.79,1.85,3.37,3.18,4.7,1.33,1.33,2.92,2.41,4.7,3.18,1.79.78,3.72,1.17,5.75,1.17,1.37,0,2.72-.18,4-.55,1.28-.36,2.49-.88,3.59-1.54,1.1-.66,2.12-1.46,3.03-2.38.91-.92,1.68-1.97,2.31-3.11l.16-.29-5.54-2.24-.13.2c-.4.59-.87,1.17-1.4,1.7-.53.53-1.12,1-1.77,1.39-.64.39-1.33.71-2.04.93-.71.22-1.45.33-2.21.33-1.23,0-2.39-.25-3.46-.76-1.07-.51-2.02-1.19-2.8-2.02-.79-.84-1.43-1.83-1.9-2.94-.47-1.11-.7-2.29-.7-3.52s.24-2.39.71-3.51c.47-1.12,1.11-2.12,1.9-2.96.79-.84,1.73-1.52,2.8-2.02,1.07-.5,2.23-.76,3.46-.76.76,0,1.5.11,2.21.33.71.22,1.4.53,2.04.93.64.4,1.24.86,1.77,1.38.53.52,1,1.08,1.4,1.68l.13.2,5.54-2.24-.16-.29c-.62-1.12-1.4-2.15-2.31-3.07"/>
    <path class="st0" d="M53.22,177.37c0,1.23-.24,2.42-.7,3.53-.47,1.11-1.11,2.11-1.91,2.96-.8.85-1.75,1.54-2.82,2.04-1.06.5-2.22.76-3.45.76s-2.39-.25-3.45-.76c-1.07-.51-2.02-1.19-2.82-2.04-.8-.85-1.44-1.85-1.91-2.96-.47-1.11-.7-2.29-.7-3.53s.24-2.39.7-3.51c.47-1.12,1.11-2.12,1.91-2.96.8-.84,1.75-1.52,2.82-2.02,1.06-.5,2.22-.76,3.45-.76s2.38.25,3.45.76c1.07.51,2.02,1.19,2.82,2.02.8.84,1.44,1.83,1.91,2.96.47,1.12.7,2.3.7,3.51M54.81,166.88c-1.34-1.34-2.92-2.41-4.7-3.18-1.79-.78-3.74-1.17-5.78-1.17s-3.96.39-5.75,1.17c-1.79.78-3.37,1.85-4.7,3.18-1.34,1.34-2.41,2.93-3.18,4.72-.78,1.8-1.17,3.74-1.17,5.76s.39,4,1.17,5.78c.78,1.79,1.85,3.37,3.18,4.7,1.33,1.33,2.92,2.4,4.7,3.18,1.79.78,3.72,1.17,5.75,1.17s3.99-.39,5.78-1.17c1.79-.78,3.37-1.85,4.7-3.18,1.34-1.34,2.41-2.92,3.18-4.7.78-1.79,1.17-3.74,1.17-5.78s-.39-3.96-1.17-5.76c-.78-1.8-1.85-3.39-3.18-4.72"/>
    <path class="st0" d="M106.51,177.4c0,1.89-.26,3.44-.78,4.59-.52,1.15-1.18,2.06-1.97,2.71-.79.64-1.68,1.08-2.66,1.3-1,.22-1.99.34-2.96.34h-5.42v-17.88h5.42c.94,0,1.93.11,2.92.34.97.22,1.87.65,2.68,1.28.8.63,1.47,1.54,1.98,2.7.52,1.17.78,2.72.78,4.61M108.19,166.66c-2.62-2.39-6.01-3.6-10.06-3.6h-11.34v28.62h11.34c2.01,0,3.89-.3,5.58-.9,1.7-.6,3.21-1.49,4.48-2.66,1.4-1.27,2.48-2.84,3.19-4.65.71-1.8,1.07-3.85,1.07-6.1s-.36-4.26-1.07-6.06c-.71-1.81-1.79-3.37-3.19-4.65"/>
  </g>
  <g>
    <polygon class="st0" points="137.71 43.79 151.93 34.29 166.16 43.79 161.53 27.32 174.95 16.73 157.86 16.05 151.93 0 146.01 16.05 128.91 16.73 142.34 27.32 137.71 43.79"/>
    <path class="st0" d="M163.03,104.66c-2.37-3.23-5.38-5.75-8.99-7.52,2.63-1.86,4.79-4.21,6.45-7.03,2.42-4.11,3.65-8.65,3.65-13.49,0-3.01-.53-6.04-1.57-9-1.06-2.97-2.56-5.65-4.48-7.99-1.94-2.36-4.33-4.3-7.1-5.78-2.84-1.51-6.03-2.28-9.49-2.28h-46.81v42.32c-4.63.25-9-.62-12.86-2.59-2-1.02-3.82-2.31-5.53-3.74-1.31-1.1-2.57-2.26-3.69-3.59-2.61-3.08-4.68-6.68-6.14-10.68-1.47-4.01-2.21-8.29-2.21-12.74,0-3.99.63-8.01,1.86-11.96,1.22-3.91,3.08-7.47,5.52-10.58,2.42-3.09,5.45-5.62,9.01-7.54,5.13-2.75,11.7-3.63,18.73-2.13,2.16.46,4.29,1.24,6.34,2.33,2.04,1.08,3.95,2.53,5.67,4.29,1.72,1.76,3.23,3.99,4.47,6.63l1.04,2.21,12.61-8.17-.81-1.69c-2.95-6.16-7.51-11.23-13.56-15.06-6.06-3.83-13.39-5.77-21.77-5.77-7.04,0-13.45,1.4-19.04,4.14-5.55,2.73-10.31,6.37-14.16,10.84-3.83,4.45-6.77,9.53-8.75,15.11-1.97,5.57-2.97,11.23-2.97,16.85,0,5.96,1.09,11.9,3.23,17.64,2.15,5.74,5.21,10.94,9.12,15.46,3.91,4.52,8.61,8.25,13.97,11.06.49.26,1.01.44,1.51.68.32.15.63.29.95.43.96.42,1.93.8,2.92,1.13.66.23,1.32.43,2,.62,1.01.28,2.03.53,3.07.73.69.13,1.39.25,2.1.35,1.76.24,3.57.36,5.41.36.63,0,1.29-.01,1.93-.04,3.01-.14,6.1-.62,9.23-1.42,3.78-.96,7.41-2.39,10.81-4.24,1.28-.7,2.51-1.46,3.7-2.28.79-.55,1.56-1.12,2.31-1.72,1.12-.9,2.19-1.86,3.21-2.88.69-.69,1.34-1.41,1.95-2.15.61-.75,1.19-1.52,1.73-2.32,1.08-1.61,2.01-3.32,2.78-5.13l.55-1.42-1.35-1.21h.02s-9.68-8.91-9.68-8.91c0,0-.99,2.28-1.54,3.32-.55,1.04-1.69,2.88-2.48,3.92-1.15,1.51-2.11,2.66-3.36,3.92-.71.71-1.46,1.33-2.22,1.95v-22.16h27.22c1.56,0,2.98.31,4.36.94,1.35.62,2.51,1.5,3.44,2.6.97,1.16,1.76,2.56,2.34,4.16.59,1.61.89,3.37.89,5.22,0,1.74-.31,3.42-.93,4.97-.62,1.57-1.47,2.95-2.51,4.09-1.05,1.15-2.26,2.05-3.71,2.73-1.38.66-2.94.99-4.64.99h-4.11c-.46.83-.95,1.64-1.48,2.43-1.23,1.83-2.65,3.55-4.21,5.12-2.06,2.06-4.33,3.92-6.76,5.54-.4.27-.23.43-.02.43h20.12c1.67,0,3.23.35,4.62,1.04,1.42.71,2.67,1.69,3.69,2.89,1.05,1.24,1.91,2.71,2.54,4.36.62,1.65.93,3.38.93,5.13s-.33,3.42-.98,5.02c-.64,1.58-1.56,2.99-2.72,4.19-1.17,1.21-2.54,2.19-4.07,2.91-1.47.71-3.12,1.06-4.9,1.06h-29.12v-22.01c-1.76.66-3.55,1.23-5.37,1.7-3.19.81-6.49,1.29-10.09,1.46-.06,0-.13,0-.21.01v32.98h44.79c3.85,0,7.52-.59,10.89-1.76,3.4-1.18,6.44-2.88,9.03-5.07,2.62-2.21,4.72-4.91,6.24-8.04,1.53-3.14,2.3-6.65,2.3-10.43,0-6-1.65-11.31-4.9-15.76"/>
  </g>
  <path class="st0" d="M166.59,145.84c-1.82,0-3.11-1.36-3.11-3.16,0-1.9,1.44-3.16,3.11-3.16s3.09,1.26,3.09,3.16-1.44,3.16-3.09,3.16ZM166.59,140.07c-1.37,0-2.43,1.07-2.43,2.61,0,1.44.93,2.61,2.43,2.61,1.35,0,2.42-1.06,2.42-2.61s-1.06-2.61-2.42-2.61ZM165.96,144.49h-.57v-3.5h1.33c.84,0,1.28.3,1.28,1.01,0,.63-.39.9-.91.95l.98,1.54h-.65l-.9-1.5h-.54v1.5ZM166.6,142.5c.43,0,.81-.04.81-.55,0-.42-.41-.47-.76-.47h-.69v1.02h.64Z"/>
</svg>