<svg xmlns="http://www.w3.org/2000/svg" xmlns:xlink="http://www.w3.org/1999/xlink" id="LOGOS" x="0px" y="0px" viewBox="0 0 504 78.307" style="enable-background:new 0 0 504 78.307;" xml:space="preserve"> <g> <g> <g> <g> <g> <polygon style="fill:#CD1935;" points="39.146,0 39.146,26.059 28.256,36.949 28.256,10.893 "></polygon> <polygon style="fill:#CD1935;" points="39.146,41.454 39.146,67.413 28.256,78.303 28.256,52.345 "></polygon> </g> <g> <polygon style="fill:#CD1935;" points="0,39.152 17.364,56.516 17.364,21.787 "></polygon> <polygon style="fill:#CD1935;" points="50.038,21.787 50.038,56.516 67.403,39.152 "></polygon> </g> </g> </g> </g> <g> <polygon style="fill:#CD1935;" points="93.774,41.133 104.687,41.133 109.944,35.876 93.774,35.876 93.774,21.416 85.404,21.416 85.404,56.944 93.774,56.944 "></polygon> <rect x="113.906" y="21.416" style="fill:#CD1935;" width="8.244" height="35.528"></rect> </g> <g> <path style="fill:#FFFFFF;" d="M299.204,35.636l-0.071-0.003c-4.076-0.149-12.558-0.46-12.558-5.452c0-5.956,8.14-6.6,11.64-6.6 c7.062,0,12.38,2.692,14.467,3.944l2.01-3.01c-3.184-1.957-8.665-4.242-16.903-4.242c-12.003,0-16.263,5.798-16.263,10.763 c0,7.402,9.577,9.123,17.611,9.263c8.239,0.232,12.416,2.5,12.416,6.742c0,4.759-4.854,7.6-12.985,7.6 c-8.026,0-14.026-3.582-16.965-5.793l-2.271,3.012c3.934,2.674,10.211,6.159,19.59,6.159c12.293,0,17.891-5.839,17.891-11.263 C316.815,37.825,307.238,35.78,299.204,35.636z"></path> <polygon style="fill:#FFFFFF;" points="332.345,21.413 326.296,21.413 326.296,56.944 330.211,56.944 330.211,27.148 345.973,49.513 347.142,49.513 361.562,27.399 361.562,56.944 367.107,56.944 367.107,21.413 361.699,21.413 347.664,42.977 347.522,42.778 "></polygon> <path style="fill:#FFFFFF;" d="M395.461,21.413l-19.783,35.531h4.572l5.17-9.932h23.285l5.454,9.932h6.202l-19.713-35.531H395.461 z M387.013,43.92l9.834-18.742l0.149,0.274l10.051,18.468H387.013z"></path> <polygon style="fill:#FFFFFF;" points="484.859,56.944 490.262,56.944 490.262,24.863 504,24.863 504,21.413 471.262,21.413 471.262,24.863 484.859,24.863 "></polygon> <path style="fill:#FFFFFF;" d="M454.289,41.376c7.567-0.732,10.263-5.453,10.263-9.628c0-2.512-1.068-5.002-2.855-6.661 c-3.483-3.161-6.45-3.667-14.191-3.667h-18.67v35.524h5.538V24.87h14.976c6.404,0,9.516,2.25,9.516,6.878 c0,4.258-2.777,6.603-7.819,6.603h-9.175l-3.208,3.237h9.562l2.158,3.178l8.256,12.179h6.314l-10.953-15.541L454.289,41.376z"></path> </g> <polygon style="fill:#CD1935;" points="190.645,31.088 204.292,50.318 204.493,50.599 206.821,50.599 219.437,31.488 219.437,56.944 227.806,56.944 227.806,21.416 219.527,21.416 207.111,40.364 193.53,21.416 184.439,21.416 184.439,56.944 190.645,56.944 "></polygon> <polygon style="fill:#CD1935;" points="270.9,26.835 270.9,26.613 270.902,26.613 270.902,21.416 237.873,21.416 237.873,56.944 272.321,56.944 272.321,52.356 272.321,51.689 272.321,51.467 246.241,51.467 246.241,41.342 260.294,41.342 260.294,35.88 246.241,35.88 246.241,26.835 "></polygon> <path style="fill:#CD1935;" d="M153.375,20.132c-12.555,0-22.769,8.547-22.769,19.053c0,10.469,10.214,18.985,22.769,18.985 s22.77-8.517,22.77-18.985C176.145,28.679,165.93,20.132,153.375,20.132z M153.375,53.045c-8.289,0-13.859-5.57-13.859-13.859 c0-4.083,1.317-7.558,3.809-10.05c2.492-2.492,5.967-3.81,10.049-3.81c8.169,0,13.657,5.57,13.657,13.86 C167.032,47.475,161.544,53.045,153.375,53.045z"></path> <g> <path style="fill:#FFFFFF;" d="M496.401,53.55h3.202v0.645h-1.227v2.75h-0.744v-2.75h-1.232V53.55z"></path> <path style="fill:#FFFFFF;" d="M503.004,56.944v-1.97h-0.026l-0.951,1.585h-0.208l-0.951-1.585h-0.026v1.97h-0.723V53.55h0.712 l1.113,1.862h0.01l1.108-1.862h0.691v3.395H503.004z"></path> </g> </g> </svg>